<?xml version="1.0" encoding="iso-8859-1"?>
<!-- Generator: Adobe Illustrator 19.0.0, SVG Export Plug-In . SVG Version: 6.00 Build 0)  -->
<svg version="1.1" id="Layer_1" xmlns="http://www.w3.org/2000/svg" xmlns:xlink="http://www.w3.org/1999/xlink" x="0px" y="0px"
	 viewBox="0 0 512 512" style="enable-background:new 0 0 512 512;" xml:space="preserve">
<g>
	<path style="fill:#787780;" d="M448.023,355.757l-0.028,13.959c-0.018,9.379,7.546,16.998,16.896,17.017l0,0
		c9.35,0.018,16.946-7.569,16.965-16.949l0.028-34.102L448.023,355.757z"/>
	<path style="fill:#787780;" d="M317.175,358.911l-0.028,13.959c-0.018,9.379,7.546,16.998,16.896,17.016l0,0
		c9.35,0.018,16.946-7.569,16.965-16.949l0.028-13.959"/>
	<path style="fill:#787780;" d="M382.676,359.054l-0.028,13.959c-0.018,9.379,7.546,16.998,16.896,17.017l0,0
		c9.35,0.018,16.946-7.569,16.965-16.949l0.028-13.959"/>
	<path style="fill:#787780;" d="M64.751,358.405l-0.028,13.959c-0.018,9.379,7.546,16.998,16.896,17.016l0,0
		c9.35,0.018,16.946-7.569,16.965-16.949l0.028-13.959"/>
	<path style="fill:#787780;" d="M135.949,358.548l-0.028,13.959c-0.018,9.379,7.546,16.998,16.896,17.017l0,0
		c9.35,0.018,16.946-7.569,16.965-16.949l0.028-13.959"/>
</g>
<polyline style="fill:#FF3100;" points="225.605,154.171 192.543,121.969 170.24,144.729 202.875,177.994 "/>
<path style="fill:#2d2d32;" d="M484.477,348.477c-4.959,1.507-10.39,3.015-16.328,4.476c-16.903,4.142-34.255,6.214-51.642,6.179
	l-290.53-0.587h-4.396l-23.185-0.046c-24.221-0.046-39.307-0.081-39.307-0.081c-40.745-7.065-66.98-46.843-56.946-86.737
	l2.785-11.046l3.728-14.832l1.036-4.131l16.477-65.576l47.361,0.092l6.478,16.098c15.028,37.362,63.436,46.866,91.397,17.939
	l54.196-56.049c0,0,10.793,11.127,30.078,26.569c4.2,3.36,8.814,6.927,13.796,10.621c6.593,4.902,13.854,10.034,21.724,15.235
	c4.764,3.141,9.746,6.317,14.936,9.481c7.364,4.476,15.166,8.941,23.347,13.279c5.27,2.796,10.701,5.546,16.293,8.204
	c37.293,17.789,81.375,32.046,129.495,34.531c4.764,0.253,9.378,1.404,13.647,3.325s8.204,4.626,11.587,7.997
	c6.49,6.49,10.114,14.418,11.161,22.518C514.003,323.83,503.831,342.574,484.477,348.477z"/>
<g>
	<path style="fill:#FFFFFF;" d="M484.48,348.473c-4.959,1.507-10.39,3.015-16.328,4.476c-16.903,4.142-34.255,6.214-51.642,6.179
		l-292.878-0.587c-7.698-21.655-15.833-36.039-15.833-36.039H213.74c62.377-1.346,160.724,3.406,222.871-2.221
		c25.326-2.255,50.641-6.8,75.058-14.349C514.006,323.825,503.833,342.57,484.48,348.473z"/>
	<path style="fill:#FFFFFF;" d="M269.476,191.366l-22.024,22.001c-1.68,1.68-3.889,2.52-6.099,2.52c-2.209,0-4.419-0.84-6.11-2.531
		c-3.36-3.371-3.36-8.837,0.012-12.197l20.424-20.413C259.88,184.105,264.494,187.672,269.476,191.366z"/>
	<path style="fill:#FFFFFF;" d="M306.136,216.082l-23.968,23.945c-1.68,1.68-3.889,2.52-6.099,2.52c-2.209,0-4.419-0.84-6.098-2.531
		c-3.371-3.371-3.371-8.837,0-12.209l21.23-21.207C295.964,209.742,300.947,212.918,306.136,216.082z"/>
	<path style="fill:#FFFFFF;" d="M345.776,237.565l-22.484,22.024c-1.68,1.645-3.866,2.462-6.041,2.462
		c-2.244,0-4.476-0.874-6.168-2.6c-3.337-3.406-3.279-8.86,0.127-12.197l18.272-17.893
		C334.753,232.157,340.184,234.907,345.776,237.565z"/>
</g>
<path style="fill:#FF3100;" d="M125.977,358.546h-4.396l-23.185-0.047c-24.221-0.046-39.307-0.081-39.307-0.081
	c-40.745-7.065-66.98-46.843-56.946-86.737l2.785-11.046l3.728-14.832l1.036-4.131l6.202,1.507
	C68.513,262.511,109.097,305.178,125.977,358.546z"/>
<g>
</g>
<g>
</g>
<g>
</g>
<g>
</g>
<g>
</g>
<g>
</g>
<g>
</g>
<g>
</g>
<g>
</g>
<g>
</g>
<g>
</g>
<g>
</g>
<g>
</g>
<g>
</g>
<g>
</g>
</svg>
